<svg width="32" height="25" viewBox="0 0 32 25" fill="none" xmlns="http://www.w3.org/2000/svg">
<path fill-rule="evenodd" clip-rule="evenodd" d="M20.0784 14.8932L20.1397 14.648L21.9167 20.1016L21.7022 20.408V20.3774L21.6409 20.4999C16.5244 27.3016 5.67848 25.9842 1.66488 19.0599C-2.59382 11.7068 1.72616 1.9945 10.0597 0.248129C10.9176 0.0949383 11.8061 0.00302315 12.6946 0.00302315C16.6469 0.00302315 20.8137 1.71876 22.9277 5.18087L24.5822 0.677061H29.7294L25.8384 11.4923L28.3507 18.4778C28.6264 19.1825 29.3924 19.5808 30.0971 19.397L30.3115 19.3357L31.6903 23.962L30.0358 24.391C27.6767 24.9731 25.2562 23.7782 24.3677 21.511C24.1533 21.1127 23.9388 20.6838 23.7856 20.2242L22.8665 17.8038L22.8052 17.7119V17.6812L20.7524 11.4617C19.6188 8.03021 17.5048 6.37575 15.8197 5.70171C14.9006 5.27278 13.8589 5.05832 12.7559 5.05832C8.49718 5.05832 5.06571 8.45914 5.06571 12.6259C5.06571 16.7927 8.49718 20.1935 12.7559 20.1935C16.1874 20.1935 19.098 17.957 20.0784 14.8932Z" fill="url(#paint0_linear_1_174)"/>
<defs>
<linearGradient id="paint0_linear_1_174" x1="0.0410604" y1="0.352299" x2="30.6792" y2="0.352299" gradientUnits="userSpaceOnUse">
<stop stop-color="#7A5FFF"/>
<stop offset="1" stop-color="#00E824"/>
</linearGradient>
</defs>
</svg>
